<svg version="1.0" xmlns="http://www.w3.org/2000/svg" width="2666.667" height="1846.667" fill="currenColor" viewBox="0 0 2000 1385"><path d="M854.4 180c-78.5 6.6-149.5 48.8-194.3 115.5-8.5 12.7-22.1 39.7-27.3 54.1-5.1 14.4-10.4 35.8-12.9 52.4-3 20.4-3 51.6 0 71.7 2.5 16.8 7.9 38.7 12.8 52.6 8.1 22.5 25.4 53.4 40.8 72.7 7.7 9.6 19.7 22.2 30.5 31.8 43.5 38.8 93.8 60 154.5 65.3 36.7 3.1 81.6-4.3 118.3-19.7 30.6-12.8 54.4-28.8 79.7-53.5l13.1-12.8 2.2-13.2c1.3-7.2 2.1-13.3 2-13.4-.2-.2-2.8.3-5.8 1.1-10.6 2.9-23.8-.1-32.7-7.5l-3.7-3-9.1 9.2c-31.9 32.3-75.3 53.5-121.5 59.3-17.2 2.1-43.2 1.5-60-1.5-66.3-11.7-123.1-55.1-151.7-115.8-5.7-12.2-12.6-33.2-15.2-46.3-18.2-91.3 25.8-182.3 108.7-224.8 26.5-13.6 54.7-20.9 85.2-21.9 36.4-1.2 66.4 5.1 98.5 20.7 13.2 6.3 30.7 17.2 38.4 23.7l3.4 2.9 8.7-3.3c19.9-7.4 38.8-6.7 57.8 2.2 3.9 1.9 7.2 3.1 7.2 2.8 0-.3-2.1-3.1-4.7-6.2-20.1-23.8-38.6-40.4-61-54.7-32.7-20.9-66.9-33.5-105.3-38.9-13.9-1.9-42.7-2.7-56.6-1.5z"/><path d="M851.6 254.5c-43.6 6.2-79.9 24.9-110.2 56.8C679.7 376.2 674 478.1 728 549c22.3 29.3 53.1 51.9 87.5 64.3 24.8 8.9 61.5 12.1 88.5 7.7 23.7-3.9 35.6-7.7 56.2-18.1 18.7-9.5 32.5-19.8 48.1-35.8 12.1-12.4 12.9-13.4 12.4-16.4-.3-1.8-.9-8.8-1.3-15.7-.3-6.9-.9-13.1-1.3-13.8-.4-.7-3.4 2.7-7.8 9-11.8 17.1-21.7 27.4-37.5 39-48.7 35.7-110.9 41.8-166.3 16.2-15.8-7.3-32.7-19.4-46.5-33.4-32.9-33.3-50.4-81.4-46.2-127.3 4.6-50.8 30.9-95.1 73-123 16.3-10.8 40.7-20.6 60.7-24.3 12.2-2.3 42.7-2.6 54.5-.5 24.6 4.3 48.8 14.3 69 28.6 6.1 4.3 6.6 4.5 7.8 2.8 4-5.6 7.4-10.1 9.6-12.8l2.5-3-8.9-6.2c-21.2-15.1-47.1-25.8-74.5-30.8-12.4-2.3-43-2.9-55.9-1z"/><path d="M1033 297.1c-2.5.5-7.8 2.5-11.8 4.5-24.5 12-34.6 41.3-22.9 66.7 4.9 10.8 19 22.9 30.3 26.2 3 .8 5.4 2.1 5.4 2.8 0 .7 2.5 35.2 5.6 76.7 6.1 82.2 5.9 80.4 12.4 84.8 2.8 1.9 4.4 2.3 8.4 1.9 4.1-.4 5.5-1.1 8.3-4 1.8-2 3.5-4.7 3.8-6 .4-1.3-2-37.3-5.2-79.9l-5.8-77.5 4.4-1.8c5.4-2.2 16.4-12.3 20.6-19 9-14.2 9.8-34.2 1.9-49.8-1.5-2.8-5.7-8.2-9.3-11.8-12.3-12.3-28.7-17.2-46.1-13.8zm23.4 30.2c6.8 4.5 10.1 10.8 10 19.2-.1 13.7-10.3 23.1-24 22.3-8.3-.5-14.8-4.5-18.7-11.3-2.4-4.4-2.7-5.9-2.5-12.2.3-6.1.8-7.8 3.3-11.4 8-11.2 20.9-13.9 31.9-6.6zm-240.7 21.1c-8.5 3-16 7.5-35.2 20.9-15.6 10.9-25.5 20.1-28 26.1-4.1 9.7 0 21.1 11.2 31.6 3.8 3.6 8.2 7.6 9.8 9 1.7 1.4 3.7 4 4.7 5.7 2.6 4.9 6.3 6.8 13.4 6.8 11.4 0 28.8-10.6 53.9-33 22.3-19.9 21.2-19.5 56-20.5 42-1.3 54.5-4.4 54.5-13.7 0-4.6-5.6-10.5-13.9-14.5-9.1-4.4-18.6-4.6-28.1-.4-5.9 2.6-7.1 2.8-15 2.3-10.3-.6-14.9-2.2-36.6-12.5-23.3-11-32.9-12.6-46.7-7.8zm286.8 36c-5.1 2.2-8.1 6.8-9.4 13.9-4.5 25.7-4.6 32.5-.6 43.6 3.4 9.9 12.9 21.4 21.4 26.2 2.3 1.2 4.1 2.7 4.1 3.2s-5.7 34.2-12.6 75c-8.8 52-12.4 75.7-12.1 79.1.4 4.2 1 5.5 4.2 8.4 3.5 3.2 4 3.4 9.6 3 6.2-.4 9-2.1 11.4-6.8.7-1.4 7-36.5 14-78 9.2-54.3 13.3-75.9 14.4-76.8.8-.6 2.3-1.2 3.4-1.2 1 0 5.3-1.4 9.5-3.2 9.9-4.1 20.3-14.1 25-23.8 3.4-7.1 7-23.1 7.9-35.1l.6-7.6-3.5-3.8c-3.2-3.5-4.1-3.9-9.7-4.3-6-.4-6.2-.4-9.9 3.4s-3.9 4.3-6.1 17.3c-1.2 7.4-3 15.3-4 17.5-1.9 4.3-7.6 10.4-8.7 9.3-.4-.3.8-8.7 2.5-18.6 3.5-20.3 3.7-24 1.6-28.1-2.6-4.9-6.1-7-12.3-7-5 0-5.8.3-9.2 3.7l-3.7 3.8-3.3 20.7c-1.9 11.5-3.8 20.8-4.2 20.8-1.5 0-4.6-6.2-5.3-10.6-.4-2.7.2-8.7 1.6-16.5 3.2-18.2 1.8-23.9-6.8-27.5-4-1.7-5.9-1.7-9.8 0zm-125.1 30c-2.6 2.6-3.4 4.2-3.4 7.1 0 5.4 5.3 10.5 10.8 10.5 8 0 13.3-8 9.8-14.8-2.2-4.2-5.3-6.2-9.9-6.2-3.1 0-4.6.7-7.3 3.4zm-33 8.5c-3.6 2.2-5.8 7.5-4.9 11.4.8 3.2 5.2 7.3 8.8 8.1 3.9.9 9.5-2 11.4-5.9 4.6-9.7-6.3-19.3-15.3-13.6zm-63.4 9.5c-16.6 3.7-26.7 15-29.5 32.8-.5 3.2-1 3.8-3 3.8-1.3 0-5 1-8.2 2.2-6.4 2.4-15.9 11-18.2 16.6-1.2 2.8-1.8 3.2-5 3.2-8.4 0-19.8 8.7-22 16.7-4.1 14.6 2.8 27.9 16.7 32 6.2 1.8 6.2 1.8 7.7 6.8 1.5 5.5 7 11.6 11.8 13.4 3.8 1.5 13 1.4 16.2-.1 3.4-1.5 5.3.3 6.6 6.3 4 17.7 26.4 23.8 38.7 10.4 4.1-4.4 6.2-9.5 6.2-15.3v-3.3l3 1.6c3.6 1.9 13.9 2 18.3.1 4.3-1.8 11.1-9.4 12.7-14 1.2-3.7.9-11.6-.5-16.2-.6-1.8-.2-2.2 2.4-2.7 4.7-1 12.4-9.2 14-15 2-7 1-16.8-2.3-21.7-3.8-5.8-10.6-10-17-10.7l-5.4-.6 1-3.6c1.3-4.7.4-13.5-2.3-20.7-2.9-7.9-12.2-17.2-19.9-20.1-7.4-2.7-15.3-3.4-22-1.9zm86.3 35.1c-9.7 4.2-9.4 19.1.4 23.1 5 2.1 9.9 1 14-3.1 2.8-2.8 3.3-4 3.3-8.3 0-5.5-2.2-9.2-7-11.7-3.6-1.8-6.5-1.8-10.7 0zm-201.9 50.9c-10.1 4.4-7.8 18.8 3.3 20.3 3.9.5 4.6.2 7.8-3 2.8-2.8 3.5-4.3 3.5-7.4 0-4.7-2.2-8.1-6.6-9.9-4-1.7-4.1-1.7-8 0zm699.1 258.8c-.3.7-.4 48.8-.3 106.8l.3 105.5h21l.6-46.5c.4-26.6 1.1-48.1 1.6-50.2 2.3-8 7.3-16.9 12.6-22.2 9.7-9.7 20.4-13.6 37.5-13.6 24.3 0 36.5 8.6 43.3 30.5.9 2.8 1.4 18.1 1.8 53l.6 49h21V939c0-51-.1-52.8-3.7-63.5-5.6-16.7-21-31.4-37.4-35.7-12.6-3.2-31.1-3.3-42.3-.2-10.3 2.9-20.1 8.5-27.4 15.6-3.9 3.8-7.1 6.8-7.3 6.8-.2 0-.5-19.2-.6-42.8l-.3-42.7-10.3-.3c-7.6-.2-10.4.1-10.7 1zM211.6 788.6c-.8 2-.8 197.8 0 199.8.5 1.4 5.8 1.6 49.2 1.6 50.7 0 52.6-.1 69.5-4.7C363 976.5 389 951.8 398 921c3.3-11.6 3.8-13.8 4.8-23.5.9-9.1-.5-26.8-2.7-34.5-.5-1.9-1.4-5.1-1.9-7-3.3-12.7-11.7-26.6-23.2-38.1-16.1-16.2-31.8-24.5-55.5-29-9-1.7-14.9-1.9-58.6-1.9-43.5 0-48.8.2-49.3 1.6zm107.5 20.2c14.9 4.2 22.2 7.8 32.9 16.2 5.3 4.1 6.9 5.7 12.5 13 7 9 10.3 16.5 14.4 32.6 1.5 5.5 1.4 30.1-.1 36.1-8 33.5-28.2 53.5-62.3 62.1-4.6 1.1-14.7 1.6-43.7 1.9l-37.8.5V805.5l38.2.6c35.1.5 38.9.7 45.9 2.7zm601.5-20.2c-.8 2-.8 197.8 0 199.8.5 1.4 5.8 1.6 49.2 1.6 50.7 0 52.6-.1 69.5-4.7 32.6-8.8 58.7-33.6 67.7-64.3 3.3-11.6 3.8-13.8 4.8-23.5.9-9.1-.5-26.8-2.7-34.5-.5-1.9-1.4-5.1-1.9-7-3.3-12.6-11.7-26.4-23.2-38.1-16-16.2-31.8-24.4-55.5-29-9-1.7-14.9-1.9-58.6-1.9-43.5 0-48.8.2-49.3 1.6zm107.5 20.2c14.9 4.2 22.2 7.8 32.9 16.2 5.3 4.1 6.9 5.7 12.5 13 6.9 8.9 10 16 14.4 32.6 1.6 6 1.4 28.7-.3 36.4-2.1 9.5-3.1 12.3-7.1 20.5-10.3 20.7-28.9 34.7-55 41.3-4.6 1.1-14.7 1.6-43.7 1.9l-37.8.5V805.5l38.2.6c35.1.5 38.9.7 45.9 2.7zm-531.6 28.8c-23.2 2.4-46.6 18.1-57.4 38.4-5.7 10.8-10.1 27.9-10.1 39.2 0 9.8 4.4 26.5 9.7 36.9 8.9 17.4 28.1 32.7 46.3 36.9 3 .7 6.8 1.6 8.4 2.1 7.7 2.4 30.1.5 41.2-3.5 11.1-3.9 26-13.7 31-20.4 1.5-2 3.1-3.9 3.5-4.2.9-.7 7.2-10.9 8.6-14 7.5-16.3 9.3-38.6 4.5-56.5-7-26.1-27.3-46-54.8-53.4-4.4-1.2-24.5-2.2-30.9-1.5zm28 21.3c16.7 5.1 28.5 16.3 34.6 33.1 2.2 5.8 2.4 8.1 2.4 22.5s-.2 16.7-2.4 22.5c-4.4 11.9-11.6 21.2-21.6 27.5-5.6 3.6-9.7 5.1-19.3 7.1-8.5 1.8-12.9 1.8-22.2-.1-9.4-1.9-12.1-3-19-7.3-18-11.3-27.6-34.2-24.4-57.9.7-4.8 1.7-10.4 2.3-12.3 3.6-11.5 13.2-23.9 23.1-29.8 8.7-5.2 16.4-7.1 29-7.1 8.4-.1 13.1.4 17.5 1.8zm153-21.3c-6.8.7-15.3 3-22.2 6-1.7.8-3.4 1.4-3.7 1.4-.4 0-2.5 1.2-4.9 2.7-18.9 12.2-28.5 25.2-34.5 46.3-2 7.3-2.2 32.5-.4 39.5 6.2 22.9 20 40.4 39.4 49.8 5.1 2.5 11.1 5 13.3 5.6 2.2.5 5.9 1.4 8.1 2 5.3 1.4 24 1.4 30.1 0 25-5.7 41.8-17.6 52.6-37.1 6.9-12.5 9.6-23.5 9.6-39.3 0-23-6.9-40.3-22.2-55.7-9.3-9.3-20.9-15.8-34.4-19.4-5.5-1.4-23.9-2.5-30.8-1.8zm26.3 21c12 3.5 21.2 9.8 27.6 18.8 4 5.6 5.2 7.9 8.4 15.9.7 1.5 1.7 6.7 2.4 11.6 1.7 13.5-.5 29-5.9 39.5-10.5 20.7-34.4 31.7-59 27.2-12.4-2.3-20.2-6.3-28.3-14.4-6.7-6.8-12.3-16.5-15.2-26.2-2.2-7.5-1.6-27.1 1-35.5 5.7-18.5 19.4-32.2 36.9-37 7-1.9 25.2-1.9 32.1.1zm101.8-19.4c-.8 3-.8 145.6 0 148.5.6 2.2 1.1 2.3 10.9 2.3 8.5 0 10.4-.3 10.9-1.6.3-.9.6-21.1.6-45.1 0-36.5.3-44.5 1.6-49.7 5.5-21.3 22.1-34.7 43.2-34.7 10.1 0 10.3-.2 10-11.7l-.3-9.7-8 .3c-16.2.7-28.3 5.8-38.6 16.3-3.7 3.8-7.3 8.2-8 9.9-1.3 2.8-1.4 1.8-1.9-11.7l-.5-14.8-9.6-.3c-9.3-.3-9.7-.2-10.3 2zm389.9-1.6c-9.8 1-22.1 4.4-32.5 9.2-7.5 3.5-17 10.2-17 12 0 1.5 5 10.1 7.8 13.4 1.4 1.7 1.8 1.5 6.5-1.8 12.4-8.9 27.3-13.4 44.7-13.4 20.1 0 31.1 5 37.9 17.2 3.6 6.6 6.4 25.1 4.3 28.5-.5.9-9.7 1.3-33.7 1.5-35.6.4-38.7.8-50.2 6.5-7 3.4-15 11.4-18.2 18.2-2.2 4.8-2.6 7.2-2.9 17.4-.4 11.3-.3 12 2.6 18.1 8.5 18.2 26.6 27.6 53.1 27.6 9.7 0 12.3-.4 22.6-3.3 7.2-2 15.6-6.9 21.6-12.6l5.8-5.6.3 9.5.3 9.5 10.3.3 10.2.3v-53.3c-.1-58.5-.2-59.6-6.1-71.7-5.9-12-17.8-21.2-33-25.5-5.5-1.5-26.6-2.8-34.4-2zm51.9 85c.3.9.6 6.1.6 11.6 0 12.9-2.6 18.7-12.5 28.1-16 15.1-51.6 16.4-65.5 2.5-5.3-5.2-6.4-8.4-6.4-17.9 0-7.6.3-9 2.8-13 3.5-5.5 8.8-8.7 18.1-11 10.1-2.5 62-2.8 62.9-.3zm109.1-85c-23.3 2.3-41.2 14.5-47 32.3-2.5 7.6-1.8 19.7 1.7 27.1 4.3 9.3 14.5 17.5 25.8 20.9 9.9 3 17.3 4.8 25 6.1 25.6 4.6 31.8 6.5 38.7 12.4 7.5 6.4 6.2 21.8-2.5 28.7-8.2 6.4-29 9.6-44.6 6.8-15.8-2.8-28.9-7.5-36.5-12.8-1.6-1.2-3.5-2.1-4.3-2.1-1.4 0-8.9 12-9.2 14.7-.4 4.9 19.2 14.1 39.4 18.5 7.5 1.6 32.7 2.1 39.4.8 26.2-5.2 40.3-16.1 44.7-34.3 1.6-6.6.7-17.1-2.1-23.4-2.8-6.6-11.1-14.6-18.7-17.9-6.4-2.9-20.2-6.6-33.3-9-19.1-3.6-23.8-4.8-29.5-7.3-9.2-4.1-13.5-10-13.5-18.6 0-5.8 1.8-10.2 6.1-14.3 6.9-6.8 15.4-9.2 32.1-9.2 17.7 0 27.9 2.6 40.5 10.5l4.2 2.6 2.4-3.8c3.6-5.6 6.7-12 6.7-13.6 0-2.9-14.1-9-31.6-13.6-4.3-1.1-27.2-2.2-33.9-1.5zM1195.2 1084c-5 3.1-7.2 7.5-7.2 14.7v6.3h-10v7h10v50h9v-50h17v-7h-17v-4.9c0-6.4.6-7.9 4.1-9.6 3.6-1.9 6.6-1.9 10.3 0 3.4 1.8 4.1 1.5 5.5-2.6 1-2.9.9-3.1-2.4-4.5-5.2-2.1-15.3-1.8-19.3.6zm205.8 13.7v15.7l-2.7-2.7c-4.4-4.1-9.4-5.7-18-5.7-17.5.1-28.3 10.8-28.3 28.1 0 8.8 1.7 14.5 5.9 19.8 8.8 11.1 28.2 13.3 39.7 4.5l4.4-3.4v8h9v-80h-10v15.7zm-10.4 17c2.2 1.1 5.2 3.9 6.9 6.2 2.5 3.6 3 5.3 3.3 11.4.4 8.6-2 14.3-8.1 19.1-3.2 2.6-4.8 3.1-10.5 3.4-5.5.2-7.4-.1-10.7-2-6.3-3.7-9.7-9.4-10.2-17.5-.4-6.1-.2-7.4 2.4-12.3 5.3-10 16.7-13.6 26.9-8.3zm77.5-30.9c-5.5 2.8-7.5 6.3-7.9 14.2l-.4 7h-9.8v7h10v50h9v-50h17v-7h-17v-5.1c0-4.3.5-5.5 2.9-8 3.3-3.3 6.4-3.6 11.8-1.4 2 .8 3.7 1.4 3.8 1.3.5-1 2.5-6 2.5-6.3 0-.3-1.3-1.1-3-2-4-2.1-14.6-2-18.9.3zM917 1124.4v37.6h23c20.5 0 23.5-.2 28.3-2 5.3-2 9.4-5.4 11.6-9.7 1.5-3 1.4-13.7-.3-17.7-1.3-3.2-6.2-7.6-9.9-9-1.7-.5-1.5-.9 1.3-3.2 4.5-3.8 6-7.5 6-14.6 0-8-2.8-12.5-9.7-15.9-4.5-2.3-6-2.4-27.5-2.7l-22.8-.3v37.5zm40.3-29.3c2.1.5 5.2 2.3 7 3.9 2.8 2.5 3.2 3.5 3.2 8s-.4 5.5-3.2 8c-4.6 4.1-9 5-24.5 5H926v-26h13.8c7.5 0 15.4.5 17.5 1.1zm7 34.7c7.5 3.4 9.9 11.6 5.4 18.3-3.6 5.4-9.2 6.8-27.9 6.9H926v-28.2l16.8.4c14.4.3 17.4.7 21.5 2.6zM1116 1099v6h-10v7h10v19.7c0 21.6.6 24.6 6 28.5 3.4 2.5 11.9 3.4 17.5 1.8 5.8-1.6 6.9-3 5.3-6.5-1-2.2-1.6-2.5-3.7-2-1.5.4-4.5.9-6.8 1.2-3.5.4-4.6.1-6.7-2.1l-2.6-2.5V1112h17v-7h-17v-12h-9v6zm-109.8 8.6c-5.6 2.8-9.1 6.4-12.5 12.8-1.7 3.3-2.1 5.9-2.2 13.1 0 8.2.3 9.5 3 14.5 8.4 15.2 30.6 19.9 45.6 9.4 4.5-3.1 4.8-4.2 1.5-7.3l-2.4-2.2-4.6 3.3c-3.9 2.7-5.7 3.3-11.5 3.6-5 .3-7.7 0-10.2-1.3-6.5-3.3-10.8-8.4-12.3-14.8l-.6-2.7h48.3l-.7-5.7c-1.3-10.8-6.2-18.4-14.8-22.7-4.3-2.2-6.6-2.6-13.3-2.6-6.7 0-9 .4-13.3 2.6zm19 5.4c6.5 1.9 11.5 7.2 13.2 14.2l.6 2.8h-39.1l.6-2.3c3.7-12.1 13.3-17.8 24.7-14.7zm42.3-6.8c-7.6 2.7-11.5 8-11.5 15.5 0 8.6 5.5 12.8 21 15.9 4.7.9 9.8 2.3 11.3 3.1 5.9 3 5.6 9.7-.4 12.9-5.1 2.6-17.8 1.6-24.8-2-5.7-2.9-5.5-2.9-8.2 1.7-1.5 2.6.2 4.2 6.9 6.8 4.5 1.8 7.8 2.3 15.7 2.3 8.8.1 10.6-.2 14.9-2.4 6.1-3.1 8.7-6.4 9.3-12.1.5-5.5-2-10.6-6.3-13.1-1.7-1-7.9-2.9-13.7-4.1-11.7-2.6-15.4-4.5-16.3-8.3-2.2-8.6 13.9-13.4 25.4-7.5 5.4 2.7 5.9 2.7 7.8-1.1 1.5-3 1.5-3.2-.2-4.5-5.3-3.9-23.6-5.7-30.9-3.1zm165 1.2c-5.6 2.6-11.9 9-14.3 14.5-1 2.2-1.6 6.6-1.6 11.7-.1 7 .3 8.8 2.9 13.9 5.4 10.5 16.3 16.3 29 15.3 11.4-1 19.6-6.6 24.3-16.6 2.1-4.8 2.4-6.4 2-14.2-.4-7.6-.8-9.5-3.4-13.6-3.5-5.7-9.9-10.9-15.2-12.4-6.8-1.9-18.1-1.2-23.7 1.4zm22.6 7.4c4.3 2.2 5.9 3.8 8.2 8.2 2.6 4.9 2.8 6.2 2.4 12.3-.5 8.1-3.9 13.8-10.2 17.4-4.4 2.5-12.4 3.1-17.2 1.2-7.2-2.7-12.5-11.1-12.5-20 0-16.8 15-26.6 29.3-19.1zm45.4-7.4c-11.1 5.1-16 13.3-16 26.6 0 7.3.4 9.2 2.7 13.6 4.7 9 12.9 14.2 23.7 15.1 12.6 1.1 24-4.8 29.3-15.1 3-5.8 3.6-17.6 1.3-24.7-2.3-6.9-9.2-13.9-16-16.2-7.4-2.6-18.8-2.2-25 .7zm19 5.7c5.5 1.5 12 8.2 13.5 13.9 2.1 7.8-.5 18.5-5.7 23.2-5 4.5-15.2 6.1-21.6 3.4-14.1-5.9-16.6-27.7-4.3-37.1 5.7-4.3 11-5.3 18.1-3.4zm187.1-6.6c-5.4 1.9-10.6 6.3-14.1 12-2.6 4.2-3 5.9-3.3 13.5-.3 7.3 0 9.5 1.8 13.9 6.5 15.1 25.7 21.4 41.5 13.7 10.1-5 14.9-13.4 14.9-26.1-.1-9.3-1.6-13.5-7.2-19.7-5.6-6.2-12-8.8-21.7-8.7-4.4 0-9.7.6-11.9 1.4zm21 8.2c2.2 1.1 5.2 3.9 6.9 6.2 4 5.7 4.8 16.6 1.7 22.7-4.1 8-9.7 11.4-18.5 11.4-6.5 0-12.1-3-16-8.7-2.4-3.3-3-5.5-3.4-11-.4-6.1-.2-7.4 2.4-12.3 5.3-10 16.7-13.6 26.9-8.3zm34.4 18.8v28.5h9v-16.6c0-10.2.5-18.2 1.2-20.7 1.9-6.3 6.6-10.4 13.8-11.8 5.9-1.1 6-1.2 6-4.5 0-3.4-.1-3.4-4.5-3.4-5.2 0-10.9 2.1-14.2 5.2l-2.3 2.1v-7.3h-9v28.5zm61-28c0 .3 5.6 13.1 12.5 28.6l12.5 28.1-2.5 4.8c-1.3 2.6-3.6 5.7-5.1 6.9-3.4 2.7-9 2.7-12.9.1-1.6-1.1-3.2-2-3.5-2-1.2 0-4.1 6.1-3.4 7.1 1.2 2 8.8 4.9 12.9 4.9 9.3 0 14.7-3.6 19.5-13 3.3-6.6 29-64.5 29-65.4 0-.3-2-.6-4.4-.6h-4.4l-9.7 22.2c-5.4 12.3-10.1 22.6-10.4 23-.3.4-5.1-9.6-10.6-22.2l-10-23h-4.7c-2.7 0-4.8.2-4.8.5zm77.5 1.9c-5.6 2.6-11.9 9-14.3 14.5-1 2.2-1.6 6.6-1.6 11.7-.1 7 .3 8.8 2.9 13.9 5.4 10.5 16.3 16.3 29 15.3 11.4-1 19.6-6.6 24.3-16.6 2.1-4.8 2.4-6.4 2-14.2-.4-7.6-.8-9.5-3.4-13.6-3.5-5.7-9.9-10.9-15.2-12.4-6.8-1.9-18.1-1.2-23.7 1.4zm22.6 7.4c4.3 2.2 5.9 3.8 8.2 8.2 2.6 4.9 2.8 6.2 2.4 12.3-.5 8.1-3.9 13.8-10.2 17.4-4.4 2.5-12.4 3.1-17.2 1.2-7.2-2.7-12.5-11.1-12.5-20 0-16.8 15-26.6 29.3-19.1zm34.1 10.9c.4 23 .9 25.3 6.9 31.1 8.2 8 26.4 8.1 34.9.2l3-2.8v3.9c0 3.9 0 3.9 4 3.9h4v-57h-9v17.4c0 18.6-.7 22.4-4.9 26.9-4.3 4.7-7.7 6-14.7 5.5-5-.3-6.9-.9-9-2.8-5.4-5.1-5.8-7-6.2-27.8l-.4-19.2h-9l.4 20.7z"/></svg>