<svg version="1.0" xmlns="http://www.w3.org/2000/svg" width="2666.667" height="2666.667" viewBox="0 0 2000 2000"><path d="M926.7 447.6c-.1.1-7.2.5-15.7.8-23.7 1-43.7 3.2-66 7.1-.8.1-3.5.6-6 1-5.4.9-6.3 1.1-12 2.4-2.5.5-6 1.3-7.9 1.6-1.9.3-3.7.7-4 .9-.3.2-2.2.7-4.1 1-4.9.7-30.6 7.8-42.5 11.6-22.1 7.2-62.2 23-66.2 26.2-.7.6-1.3.7-1.3.2 0-.5-.4-.5-.8.1-.4.5-5.2 3.2-10.7 5.9-20.1 9.7-46.4 25.4-68.5 40.9-10.1 7-31.6 23.1-33 24.7-.3.3-3.4 3-7 6s-7.2 6.1-8.1 7c-.9.8-6.3 5.8-12 11-10.8 10-11.6 10.8-24.5 24.1-7.8 8.1-11.3 12-19.9 22.4-2.2 2.6-4.7 5.5-5.6 6.4-.8.9-4.7 5.6-8.4 10.6-3.8 4.9-7.2 9.2-7.6 9.5-.3.3-2.2 2.7-4.1 5.5-22.1 31.8-30.9 46.2-46.1 75.5-6.4 12.3-16.6 34-17.1 36.5-.1.5-1 2.8-2 5s-2.7 6.5-3.8 9.5c-1.1 3-2.6 6.8-3.3 8.5-6.4 14.6-20.3 66-24.9 92.5-.8 4.7-1.7 9.4-1.9 10.5-.7 3.2-1.6 9.6-2.2 15-.3 2.7-.7 6.3-.9 8-.2 1.6-.7 6.6-1.1 11-.4 4.4-.9 9.3-1.1 11-2.2 23-2.1 61.5.1 86.5.2 1.9.6 6.6.9 10.5.4 3.8.9 8.3 1.1 10 .2 1.6.7 5.9 1 9.5.3 3.6 1 8.3 1.5 10.5.5 2.2 1.1 6 1.5 8.5 1.6 11.4 7.5 37.6 13 57.5.9 3.3 1.8 6.7 2 7.5 1.9 7.9 13.4 41 17.9 51.5 13.4 31.1 23.9 52 38.5 76 9.5 15.8 9.5 15.7 10.4 16.9.5.6 2.1 2.9 3.5 5.2 1.5 2.2 4.5 6.7 6.7 9.9s4.5 6.5 5 7.4c.6.9 1.2 1.8 1.5 2.1.3.3 4.6 5.7 9.5 12 22.7 29 49 57 73 77.5 3.8 3.3 8.5 7.4 10.5 9.2 1.9 1.7 8 6.5 13.5 10.7 5.5 4.1 10.5 7.9 11 8.3.6.5 4.8 3.6 9.5 6.8 13.8 9.7 17 11.9 18.7 13 .9.5 6.1 3.8 11.5 7.2 5.4 3.5 10 6.3 10.2 6.3.3 0 4.4 2.3 9.3 5.1 33.9 19.7 83.4 39.8 125.8 51.3 13.5 3.6 37.1 8.9 45.5 10.1 1.4.2 6.6 1 11.5 1.9 8.6 1.5 11.7 1.9 23 3.1 2.8.3 6.1.8 7.5 1 1.4.2 6.1.7 10.5 1 4.4.3 11.4.8 15.5 1.1 8 .6 53.8.6 60.5 0 2.2-.2 9-.6 15-1 6.1-.4 11.7-.9 12.5-1.1.8-.2 4-.7 7-1 7.7-.8 20.2-2.5 23.1-3 1.3-.3 3.5-.7 4.9-1 1.4-.3 4.3-.8 6.5-1.1 2.2-.3 6-1 8.5-1.6 2.5-.5 5.9-1.2 7.6-1.5 2.4-.3 21.2-4.8 32.4-7.7 16.7-4.3 53.8-17.2 67.5-23.5 2.2-1 8.5-3.8 14-6.1 5.5-2.4 11.1-5.1 12.5-6.1 1.4-.9 2.8-1.7 3.3-1.7.8-.1 17.1-8.3 21.7-10.9 1.4-.8 5.1-2.9 8.2-4.6 9-5 39.5-24.6 42.4-27.2.6-.5 2.2-1.7 3.5-2.5 5.6-3.7 28-20.9 34.4-26.4 3.8-3.4 8.5-7.5 10.5-9.1 16.9-14.5 48.6-46.8 47.5-48.4-.2-.4 0-2.3.5-4.2.5-1.9 1.1-5.2 1.4-7.4.3-2.2.7-5 1-6.1.2-1.2.7-3.8 1-5.8.3-2 .9-5.2 1.2-7.2.3-2 .8-4.6 1-5.8.2-1.1.8-4.6 1.3-7.6s1.2-6.7 1.6-8.2l.7-2.6-3.9 1.3c-19.4 6.6-43.3 5.5-61.1-2.7-6.1-2.8-17.7-10.6-22.1-14.9l-3.5-3.3-6.5 7.4c-10 11.2-25.7 26.6-37.1 36.5-29.9 25.8-74.9 54.2-109 68.8-1.9.8-6.2 2.6-9.5 4-18 7.7-53.5 19.2-68.5 22.1-3.4.7-6.7 1.4-12 2.5-6.1 1.4-26.2 4.8-33 5.6-3 .4-6.6.8-8 1-20 2.9-58.2 3.3-87.2 1-4.3-.3-8.7-.8-9.9-1-1.2-.2-4.7-.7-7.8-1.1-3.1-.3-6.3-.7-7.1-.9-.8-.1-3.5-.6-6-1-53.6-8.1-110.9-28.9-157.7-57.1-12.5-7.6-34.7-22.7-39.5-27-1.5-1.3-3.2-2.4-3.8-2.4-.5 0-1-.3-1-.8 0-.4-1.1-1.4-2.4-2.2-5-3.2-27.4-22.9-37.5-33.1-8.2-8.4-17.4-18.3-22.6-24.4-3.3-3.9-6.5-7.5-7.1-8-5.6-5.2-29.5-39.4-41.2-59-24-40.4-45.4-97.6-52.7-141.5-1-6-1.7-10.4-2.2-12.5-.2-1.1-.6-4-.8-6.5-.3-2.5-.9-7.9-1.5-12-3.1-24.5-3.4-72.3-.6-96.5.2-1.1.6-4.9 1-8.5.6-5.4 2.3-16.7 4-26.5.3-1.6 1.7-8.4 2.1-10.5 8-37 19.6-70.6 36.3-104.4 3.5-7.1 9.1-17.7 12.4-23.5 9.1-15.8 31.3-48.8 35.8-53.1.3-.3 2.1-2.5 4-5 10.9-14 29.3-33.6 44-47 5.2-4.7 11.7-10.6 14.4-13.1 6.4-5.8 30.3-23.7 42.1-31.6 17.9-11.9 40.3-24.3 61-33.8 14.3-6.5 48.2-19.1 59.5-22 .8-.3 5.8-1.6 11-2.9 8.9-2.4 29.7-6.9 36.5-8 1.7-.2 7.3-1.1 12.5-2 5.2-.8 12.4-1.8 16-2 3.6-.3 11-.9 16.5-1.3 18.9-1.4 65.4-.7 76.5 1.1 1.4.3 5 .7 8 1 14.3 1.5 37.9 5.8 52.5 9.6 2.2.6 5.1 1.3 6.5 1.6 6.3 1.3 42.1 13 50.5 16.5 1.7.7 3.2 1.3 3.5 1.4.3.1 2.3 1 4.5 1.9 38.4 16.4 73.8 37.3 103.5 61.1 4.1 3.3 7.7 6.3 8 6.7.3.4 4.4-1 9-3.1 8.9-4 25.5-9.8 30.6-10.7 2.9-.4 5.7-1 10.4-2 11.8-2.4 38.5-2.4 52.5.1 7.4 1.3 14.1 2.9 15.6 3.6.9.5 3 1.1 4.6 1.3 4.1.8 19.4 7 27.1 11.1 3.5 1.8 5.9 2.8 5.4 2.2-2.1-2.8-17.2-21.4-19.1-23.7-15.4-17.5-32.3-34.7-48.8-49.6-15.1-13.6-17.3-15.4-25.9-21.9-4.3-3.3-8.1-6.2-8.4-6.5-2.9-3.2-42-30-43.8-30-.5 0-1.7-.9-2.7-2-1-1.1-2.4-2-3.2-2-.7 0-1.3-.5-1.3-1 0-.6-.4-1-.9-1s-4.9-2.3-9.8-5.1c-11.8-6.9-39-20.5-53.4-26.7-33.7-14.6-78-28.7-105.9-33.6-1.4-.2-4.7-.9-7.5-1.5-14.5-3.1-45.1-7.4-60.5-8.6-16.3-1.2-56.6-2.5-57.3-1.9z"/><path d="M917.9 605.4c-.2.2-5.1.7-11 1-5.8.4-11.6.8-12.9 1.1-1.3.3-5.4.7-9 1.1-3.6.3-6.7.7-7 .9-.3.2-2.6.6-5 1-8.5 1.2-10.5 1.5-15.5 2.7-55.5 12.4-96.8 29.9-141.5 59.7-10.4 7-17.3 12.1-29 21.6-14.9 12.1-37 33.6-47.5 46-3.2 3.8-6.4 7.5-6.9 8.1-.6.6-2.2 2.6-3.6 4.4-1.4 1.8-4.3 5.6-6.5 8.3-17.4 21.8-40.5 62.8-52 92.2-2.5 6.6-5 12.9-5.5 14-1.4 3.2-6.7 20.1-9.4 30-2.5 9-3.3 12.4-4.2 18-.3 1.6-.7 3.7-1 4.5-.3.8-.8 2.8-1.1 4.5-.2 1.6-1.1 6.6-1.8 11-.8 4.4-1.7 10.2-2 13-.4 2.7-.8 6.1-1.1 7.5-2.5 15.1-2.5 71.5 0 88.5.3 1.6 1 6.6 1.6 11 1.3 9.7 1.4 10.7 4.6 26.5 1.4 6.9 3.2 14.8 4 17.6.8 2.8 1.6 6 1.9 7 1 4.9 9 29 11.6 34.9.4 1.1 1.7 4.3 2.8 7.1 3.9 10.1 16.4 36.3 22.1 46.4 7.2 12.5 26.6 42.2 28.9 44 .3.3 2.6 3.2 5.1 6.4 10.3 13.6 29.9 34.4 46 48.9 9.4 8.5 10.9 9.8 16.5 14.2 2.7 2.2 5.5 4.4 6.1 5 .6.5 2.2 1.7 3.4 2.5 2.4 1.6 8 5.7 12.2 8.9 1.4 1.2 3.1 2.1 3.6 2.1.6 0 1.2.4 1.4.8.3.8 12.5 9.2 13.4 9.2.2 0 2.5 1.3 5.1 2.9 24.3 14.8 54.1 28.4 80.3 36.6 17.1 5.3 16.7 5.2 28 7.9 16.3 4 18.6 4.4 32 6.5 26.6 4.2 32.8 4.6 62.5 4.6 21.3 0 42.7-1 44.5-2 .3-.2 3.7-.6 7.5-.9 3.9-.4 7.7-.9 8.5-1.1.8-.2 2.9-.6 4.5-.9 7.3-1.2 10-1.7 21.2-4.2 14.3-3 44.7-11.8 52.3-15.1.8-.3 1.7-.7 2-.8 6.9-2.4 25.3-10.6 36.5-16.3l15.2-7.6c1.3-.6 2.3-1.4 2.3-1.9 0-.4.6-.7 1.3-.7.6 0 4-1.8 7.5-4 3.4-2.2 6.5-4 6.7-4 .5 0 15.7-10.1 16.5-11 .3-.3 2.8-2.1 5.5-4 2.8-1.9 5.7-4 6.5-4.7.8-.7 4-3.1 7.1-5.5 20-15.4 65.4-61.5 63.6-64.5-.6-1-1.4-8-2.2-18.8-.4-4.4-.8-10-1-12.5-.2-2.5-.7-9-1.1-14.5-.4-5.5-.8-11.4-1-13-.1-1.7-.3-4.8-.4-7-.1-4.9.7-5.8-12.7 14.5-8.7 13.2-18.7 26.8-26.7 36-5.9 6.8-32.1 32.6-37.6 37.1-3 2.4-6.1 5-6.8 5.6-.7.7-1.6 1.3-2 1.3-.4 0-2.3 1.4-4.2 3.1-4.8 4.3-17.4 13.1-29.5 20.7-8.9 5.6-38.1 20.8-46 23.9-1.6.7-5.1 2.1-7.6 3.2-20.5 8.7-57.9 18.5-82.4 21.6-2.7.4-6.1.9-7.5 1.1-16.7 2.6-57.7 2.5-80.5-.1-56.7-6.7-107.9-25.6-156-57.8-6.6-4.4-12.2-8.3-12.5-8.6-.3-.3-3-2.5-6-4.8s-6.7-5.3-8.2-6.5c-1.4-1.3-4.6-3.9-6.9-5.8-11.4-9.3-39.5-39.2-48.4-51.4-1.1-1.6-2.5-3.3-3.1-4-1.4-1.5-14.5-21.1-18-26.9-10.7-17.9-18.2-33-26-52.5-10.2-25.4-19.1-58.5-21.9-81.7-.3-2.8-.8-6.6-1-8.5-1.1-8.2-1.8-23.6-1.9-38.5 0-15.8 1-39.1 1.8-40.4.3-.4.7-3.1 1-6.1.8-7.4 1.5-11.6 3.6-22.5.6-2.8 1.2-6.1 1.5-7.4 4.2-22.4 17.4-59.1 29.7-83.1 7.6-14.9 9.8-18.7 18.1-31.3 15.5-23.7 29.2-40.4 50.3-61.2 25.2-24.9 57.4-47.6 89.4-63.2 13.1-6.4 36.9-16.3 39-16.3.6 0 1.8-.4 2.8-1 1.3-.7 12.1-4.2 17.7-5.6 8.9-2.3 31.2-7.3 34.6-7.8 2.4-.3 5.5-.8 6.9-1.1 25.7-4.4 64.5-5.3 92.3-1.9 16.7 2 39.3 6.2 51.1 9.6 2.2.6 4.6 1.2 5.2 1.4 2.2.4 18.9 5.6 20.9 6.5 1.1.5 4.7 1.8 8 3 3.3 1.1 7.4 2.7 9 3.4 1.7.7 5.5 2.3 8.5 3.6 15.8 6.6 42.8 21.7 55.7 31.1 2.9 2.1 5.6 3.8 6.2 3.8.5 0 1.1.3 1.3.7.2.5 3 2.9 6.4 5.5l6.1 4.7 1.4-2.7c2.5-5 14.9-22.1 20.3-27.9l5.4-5.8-8.6-6.4c-28.3-21.1-63.8-40.5-95.3-52.1-28.1-10.4-62.2-19.3-82.4-21.5-2.7-.3-5.7-.8-6.5-1-.8-.2-5.1-.7-9.5-1.1-4.4-.3-8.9-.8-10-1.1-2.3-.6-51.1-1.4-51.6-.9z"/><path d="M1292.7 697.6c-.1.1-3.7.5-7.9.9-26.8 2.3-53.9 16.9-71.4 38.6-15.9 19.6-23.9 42.4-23.8 67.9 0 19 3.3 32.2 12.1 49.3 10.8 20.8 31.2 39.7 52.3 48.3 3.6 1.4 7.2 3 8.1 3.4.9.5 4.4 1.4 7.8 2.1 5 1.1 6.1 1.7 6.2 3.4.1 1.1.2 3.4.4 5.1.1 1.7.5 7.5 1 13 .4 5.4.9 11.7 1 13.9.2 2.2.6 8 1 13 .4 4.9.8 10.6 1 12.5.2 1.9.6 8.2 1 14 .3 5.8.8 11.8 1 13.5.2 1.6.7 7.3 1 12.5.4 5.2.8 11.5 1 14 .2 2.5.7 8.3 1 13 .3 4.7.7 10.5 1 13 .2 2.5.7 8.5 1 13.5.3 4.9.7 11.2 1 14 .2 2.7.7 9 1 14 .3 4.9.8 11.2 1 14 .5 5 1.1 12.6 2 25.2.3 3.8.7 9.9 1 13.8.3 3.8.7 9.9 1 13.5.2 3.6.7 9.4 1 13 .7 7.5 1.1 13.5 2 27.5.3 5.5.8 11.1 1 12.5.2 1.4.7 6.8 1 12.1.3 5.3.8 11.7 1 14.4.5 4.8 4.2 13.4 7.3 16.9 2.1 2.4 11.2 8.2 13.2 8.5 9.9 1.3 12.8 1.1 18.3-.9 6.8-2.6 12.4-7.8 15.7-14.7 2.6-5.3 3-12.8 1.7-28.8-.9-10.2-1.3-16.3-2.2-28.5-.3-4.7-.8-10.8-1-13.5-.5-5.1-1-11.2-2.1-27-.3-5-.7-10.4-.9-12-.1-1.7-.6-7.5-.9-13-.4-5.5-.9-12-1.2-14.5-.2-2.5-.6-8.1-.9-12.5-.3-4.4-.7-10.3-.9-13-1.3-16.1-1.8-21.9-3.1-40-.3-4.4-.8-10.5-1-13.5-1.2-14.8-1.5-18.1-2-25.5-.3-4.4-.7-10.5-1-13.5-.2-3-.7-9.3-1-14-.3-4.7-.8-10.5-1-13-.3-2.5-.7-8.1-1-12.5-1.1-16.4-2-28-3.1-40.1l-.6-6.2 7.9-3.7c10-4.8 14-7.5 23.5-15.2 35.6-29.3 48.2-78.1 31.1-121.2-2.7-6.8-9.7-19.6-12-21.9-.7-.7-1.3-1.8-1.3-2.3 0-2-19.7-20.6-26.5-25-11.4-7.5-28.7-14.7-38.5-16.2-9.4-1.5-23.6-2.7-24.3-2.1zm11.8 56.7c8.8 1.2 19.2 6.6 26.7 13.9 15.5 15.3 19.5 37 10.5 57.3-2.5 5.7-3.3 6.9-10 14.1-3.9 4.2-14.1 11-18.2 12.1-17.8 4.6-30.1 3.4-43.4-4.4-18.1-10.6-28-33.4-23.4-53.8 4.3-19.2 20.3-35 39.3-38.8 5.9-1.2 11.1-1.3 18.5-.4zM825.5 805.5c-17.9 2.7-37.4 11.8-64.5 29.9-5.8 3.9-10.9 7.4-11.5 7.9-.5.4-5.5 3.9-11 7.7-11.6 8-15.3 10.6-20 14-1.8 1.4-6.6 4.7-10.5 7.5-26.6 18.4-38.1 35.9-37.4 56.6.4 12.3 4.4 22 15 35.9 4.1 5.4 16.1 17.3 21.9 21.8 7.9 6 13.9 10.2 14.6 10.2.4 0 1.7 2.6 3 5.7 3.3 8.4 11.9 16.5 19.6 18.6 6.1 1.7 17.7 1.7 22.3-.1 1.4-.5 2.7-.9 3-.9 2.5.2 19.9-7.4 28.2-12.4 5.5-3.3 21.9-14 22.8-14.9.3-.3 4.1-3.2 8.5-6.5s8.2-6.2 8.5-6.5c.3-.3 3-2.5 6-5s5.7-4.7 6-5c.3-.3 3.2-2.8 6.5-5.5 3.3-2.8 6.9-5.9 8.1-7 1.1-1.1 5.4-4.9 9.5-8.5 4-3.6 9.8-8.8 12.9-11.7 16.1-15 26.4-21.4 40.6-25.2 14.4-3.9 16.7-4.1 65.9-4.6 23.1-.2 43.4-.6 45-.8 1.7-.3 6.2-.8 10-1.2 7.7-.7 12.2-1.4 14.5-2 .8-.2 3.3-.6 5.5-1 7.9-1.1 20.3-4.4 25.7-6.8 6.4-2.8 13.2-9.1 14.2-13.1 2.3-9.3-9.2-23.1-26.8-31.9-8.4-4.2-17.5-7.6-22-8.2-1.5-.3-3.6-.7-4.6-1-2.8-.9-16.1-.9-19-.1-1.4.5-7 3-12.5 5.6-16.8 8.1-30.1 9.7-48.6 6-19-3.9-31-8.6-70.2-27.9-23.5-11.6-36.2-16.6-47.8-19-8.2-1.7-22.3-2-31.4-.6zM1427.4 885.1c-9.8 1.8-19.3 10.1-21.9 19.3-.8 2.8-3.1 14.8-5 26.6-2 11.8-3.8 22.6-4.2 24-.3 1.4-.7 8.3-.9 15.5-.9 30 10 56.9 31.8 78.4 4.5 4.4 8.5 8.1 8.8 8.1.4 0 1.7.9 3 2s5.9 4.1 10.2 6.6c7 4 7.9 4.8 7.4 6.8-.3 1.3-.8 4.1-1.1 6.2-.4 2.1-1.3 7.5-2 11.9-.8 4.4-1.7 9.3-2 11-.2 1.6-.7 4.1-.9 5.5-.3 1.4-.8 4.2-1.1 6.2-.2 2.1-2.1 13.1-4 24.5-4.3 24.7-3.5 19.9-9.6 56.3-4.8 28.3-5.4 32-6.3 36.5-.5 2.7-1.4 8.3-2.1 12.5-.3 1.9-1 6-1.5 9s-1.2 7.1-1.5 9c-.3 1.9-1.2 7.1-2 11.5-.7 4.4-1.6 9.6-1.9 11.5-.3 1.9-1 6.2-1.6 9.5-.6 3.3-1.3 7.6-1.6 9.5-.2 1.9-.6 4.6-.9 6-1 4.9-1.5 7.8-4.5 25.5-3.2 18.6-3.8 22.3-4.5 26.5-.2 1.4-1.6 9.5-3.1 18-3.9 22.8-2.7 30.6 6.3 39.2 7.2 7 18.5 9.8 28.2 6.9 7.9-2.4 16.9-11.1 18.1-17.6.2-.6.6-1.9 1-3.1.5-1.1 1.1-4.5 1.5-7.5.3-3 .8-6.1 1-6.9.2-.8.6-2.9.9-4.5.3-1.7.8-4.5 1.1-6.4.3-1.9 2.3-13.8 4.5-26.5 2.1-12.7 4.8-28.5 5.9-35 1.2-6.6 2.3-13.3 2.6-15 .2-1.7.6-4.2.9-5.6.3-1.3.8-4 1.1-6 .3-2 .7-4.5.9-5.7.3-1.1.7-3.8 1.1-5.9.9-5.9 4-24.4 6.1-36.4.2-1.4.7-4.1 1-6 .3-1.9 1.1-6.7 1.9-10.5.8-3.9 1.6-8.8 1.9-11 .3-2.2 1.4-9.4 2.6-16 1.2-6.6 2.4-13.7 2.7-15.8.3-2.1.6-4.4.7-5 .6-2.8 1.6-8.4 2-10.7.2-1.4.7-4.1 1-6 .7-3.8 1.1-6.3 2.6-15.5.5-3.3 1.2-7 1.4-8.1.7-3.4 1.8-9.7 2.1-12.4.2-1.4 1-6.3 1.8-11 1.6-8.8 2.5-14.3 3.3-19.5.3-1.7.7-4.1 1-5.3.3-1.3.7-4.3 1.1-6.5.3-2.3.7-4.4.9-4.6.2-.2 3-.8 6.1-1.2 12.8-1.8 31.6-9.7 43.9-18.4 12.1-8.7 24.6-22.7 31.6-35.5 3-5.5 8.5-18.7 9.2-22 .3-1.4.7-3.5 1-4.8 1.4-5.3 1.7-7.1 3.2-15.2.8-4.7 1.7-9.6 1.9-11 .2-1.4 1.2-7 2.2-12.5 1-5.5 1.8-14.1 1.8-19 0-8-.3-9.5-2.7-13.5-6.1-10.4-13.3-14.5-25.3-14.5-6.7.1-8.8.5-13.1 2.7-7.7 4-13.4 12.1-14.9 20.9-.5 3.2-2.1 11.9-3 17.1-.2 1.3-1.1 6.6-2 11.8-3.2 19.5-3.6 21.3-4.5 23.1-.6 1-1 2.5-1 3.4 0 .9-1 3.1-2.2 4.8-1.3 1.8-2.1 3.4-1.9 3.5.2.2-1.5 2.7-3.8 5.4-4.5 5.5-10.1 10.1-14.5 11.8-2.4.9-2.7.8-2.2-.7.8-3.2 1.9-8.7 2.2-12.1.2-1.8.5-4.1.8-5 .3-.9.8-3.5 1.1-5.7.4-2.2 2.4-14.4 4.7-27 2.2-12.7 4.3-24.8 4.6-27 1.3-7.9.7-20.8-1.1-24.2-4.4-8.3-12.3-14.5-19.7-15.8-18.6-3.2-33 7.9-35.5 27.5-.2 1.8-1.6 9.7-2.1 12.5-.5 2.5-1.3 7-1.9 11-1.7 11.9-9.6 56.9-9.9 57.3-.5.4-4.5-3.9-7.4-7.9-5.1-7.2-8.1-24.4-6.2-35 .5-2.4 1.1-6.2 1.4-8.4.9-5.6 2.5-14.8 4.1-24.2 1.7-9.8 2-12.5 2-18.8 0-15.4-10.1-25.6-27.5-28-.8-.1-3.3.2-5.6.6zM1164.9 944c-12 3.4-19 15.4-15.9 27.1 5.4 19.9 33.5 21.6 41.5 2.5 6.8-16.2-8.8-34.2-25.6-29.6zM1088.9 966.6c-11.6 3.5-18.2 17.7-13.5 28.9 6.1 14.3 25 18.3 35.6 7.5 4.9-5 6.4-8.8 6.3-16.1 0-6.7-1.2-9.5-5.7-14.7-5-5.7-14.6-8-22.7-5.6zM952 988.6c-15.6 2.9-25.7 7.1-36 15.2-5.2 4.1-14 13-14 14.2 0 .5-.3 1-.8 1.2-1.1.4-7.2 10.3-7.2 11.6 0 .5-.4 1.2-.8 1.4-.5.1-2 3.7-3.4 7.8-2.8 8-4.3 15.9-4.7 24.5-.1 1.8-1.2 2.2-7.5 3.2-14.1 2.3-28.2 9.2-39.2 19.3-4.6 4.2-12.4 14.2-12.4 15.8 0 .7-.3 1.2-.7 1.2-.5 0-1.9 2.5-3.3 5.5l-2.5 5.4-4.5-.1c-8.1-.3-14.4 1.3-23.6 5.7-11.1 5.4-18.6 12.8-23.8 23.8-4.3 9.1-5.6 15.2-5.2 25.2.4 9.4.9 11.6 3.7 18.1 4.7 10.5 12 18.9 22 25 7.3 4.4 11.7 5.8 21.4 7 2.8.4 5.1.7 5.1.8.1 0 .4 2.3.7 5.1.8 6.7 2.1 10.8 5.2 16 2.2 3.9 10 12.4 13.7 15 11.7 8.3 30.2 9.5 43.6 2.9 1.9-1 3.1-.7 7.1 1.4 2.7 1.5 4.8 3.3 4.7 4.1-.1 2.8 1.6 13.4 2.3 15 4.4 9.2 6.4 12.2 11.6 17.5 16.2 16.5 39.5 19.4 59.5 7.3 14.6-8.8 23-24.2 22.6-41.5 0-3.9 0-7.2.2-7.2s2.3 1.1 4.7 2.4c5.6 3.2 10.3 4.4 19.3 5.1 17.7 1.5 35.5-8.4 44.6-24.7 6.7-12 7.9-27.2 3.1-39.2-2.2-5.6-2.5-7-1.4-7.7.8-.5 1.9-.9 2.5-.9 2.1 0 9.9-3.9 14.4-7.1 10.9-7.7 18.8-19.6 21.5-32.4 1.4-7 1.2-18.8-.5-24.2-6.7-22-26.6-38.2-47.6-38.7-3.5 0-6.4-.6-6.4-1.1 0-.6.7-4.4 1.6-8.5 1.5-7.3 1.5-20.6-.1-28.5-1.2-5.9-4.6-15.1-7.6-20.5-1.8-3-3.8-6.7-4.6-8.2-1.4-2.7-11.5-13.4-17.1-18.1-5.1-4.4-20.3-12-26.2-13.2-.3-.1-3.2-.7-6.5-1.4-8-1.8-19.6-2-27.5-.5zM1133.5 1064.4c-5.7 2.6-10.6 7.2-13.2 12.5-2.5 5-2.5 18.3 0 22.9 10.6 19.5 37.9 19.2 47.2-.4 6-12.8.8-28.1-11.9-34.6-6-3.1-15.6-3.3-22.1-.4zM706 1172.1c-5.4 1-8.2 2.4-11.9 6.1-13.9 13.7-4.1 37.3 15.4 37.1 19.2-.2 28.8-22.5 15.6-36.6-4.7-5.2-12.6-7.9-19.1-6.6z"/></svg>